<svg width="1024" height="1024" viewBox="0 0 1024 1024" fill="none" xmlns="http://www.w3.org/2000/svg">
  <defs>
    <linearGradient id="bg-grad-c" x1="0" y1="0" x2="1024" y2="1024" gradientUnits="userSpaceOnUse">
      <stop stop-color="#001529" />
      <stop offset="1" stop-color="#003366" />
    </linearGradient>
    <linearGradient id="arc-grad-1" x1="300" y1="300" x2="700" y2="700" gradientUnits="userSpaceOnUse">
      <stop stop-color="#FFFFFF" />
      <stop offset="1" stop-color="#00F2FF" />
    </linearGradient>
  </defs>

  <rect width="1024" height="1024" rx="225" fill="url(#bg-grad-c)" />
  <circle cx="512" cy="512" r="400" fill="#007AFF" fill-opacity="0.1" />
  <path
    d="M300 400C300 250 450 200 512 200C700 200 824 350 824 512C824 674 700 824 512 824"
    stroke="url(#arc-grad-1)"
    stroke-width="80"
    stroke-linecap="round"
  />
  <path
    d="M724 624C724 774 574 824 512 824C324 824 200 674 200 512C200 350 324 200 512 200"
    stroke="white"
    stroke-opacity="0.2"
    stroke-width="80"
    stroke-linecap="round"
  />
  <path
    d="M824 512L764 452M824 512L884 452"
    stroke="white"
    stroke-width="40"
    stroke-linecap="round"
    stroke-linejoin="round"
  />
  <path
    d="M200 512L140 572M200 512L260 572"
    stroke="white"
    stroke-opacity="0.3"
    stroke-width="40"
    stroke-linecap="round"
    stroke-linejoin="round"
  />
</svg>
